<svg xmlns="http://www.w3.org/2000/svg" width="1034.234" height="995.304" viewBox="0 0 1034.234 995.304"><g transform="translate(-1402.883 -1080)"><g transform="translate(1747.724 1080) rotate(30)" fill="none"><path d="M597.032,0,796.043,344.841,597.032,689.682H199.011L0,344.841,199.011,0Z" stroke="none"/><path d="M 200.7430419921875 3 L 3.46368408203125 344.8410949707031 L 200.7430419921875 686.6821899414063 L 595.2998046875 686.6821899414063 L 792.5791625976563 344.8410949707031 L 595.2998046875 3 L 200.7430419921875 3 M 199.0107421875 0 L 597.0321044921875 0 L 796.0428466796875 344.8410949707031 L 597.0321044921875 689.6821899414063 L 199.0107421875 689.6821899414063 L 0 344.8410949707031 L 199.0107421875 0 Z" stroke="none" fill="rgba(198,198,255,0.2)"/></g><line x1="344.01" y2="596.617" transform="translate(1576.821 1178.799)" fill="none" stroke="rgba(198,198,255,0.2)" stroke-width="3"/><line x1="342.348" y2="596.617" transform="translate(1919.169 1378.225)" fill="none" stroke="rgba(198,198,255,0.2)" stroke-width="3"/><line x1="686.359" transform="translate(1576.821 1775.416)" fill="none" stroke="rgba(198,198,255,0.2)" stroke-width="3"/><line x1="684.697" y1="1.662" transform="translate(1576.821 1378.225)" fill="none" stroke="rgba(198,198,255,0.2)" stroke-width="3"/></g></svg>