<svg width="293" height="108" viewBox="0 0 293 108" fill="none" xmlns="http://www.w3.org/2000/svg">
<g filter="url(#filter0_d)">
<path d="M92.246 17.337L49.8627 4.97522L7.47949 17.337L16.8979 70.6104L49.8627 98.5716L83.1217 70.6104L92.246 17.337Z" fill="url(#paint0_linear)" stroke="url(#paint1_linear)" stroke-width="5"/>
<path d="M72.498 27.7377V33.1923H55.1958V45.2158H68.6857V50.6704H55.6636L55.7245 57.1624L48.5095 54.4313V27.7377H72.498Z" fill="white"/>
<path d="M41.6558 68.9109C38.9188 68.9109 36.4554 68.4417 34.2657 67.5033C32.0761 66.5258 30.3556 65.1572 29.1044 63.3977C27.8532 61.6382 27.2275 59.5853 27.2275 57.2393H34.383C34.5394 58.9988 35.2237 60.4456 36.4358 61.5795C37.6871 62.7134 39.4271 63.2804 41.6558 63.2804C43.9628 63.2804 45.7614 62.733 47.0518 61.6381C48.3421 60.5042 48.9873 59.0575 48.9873 57.2979C48.9873 55.9294 48.5767 54.815 47.7556 53.9548C46.9736 53.0946 45.9765 52.4299 44.7644 51.9606C43.5913 51.4914 41.9491 50.9831 39.8376 50.4357C37.1788 49.7319 35.0086 49.0281 33.3273 48.3242C31.6851 47.5813 30.2774 46.4474 29.1044 44.9225C27.9314 43.3975 27.3448 41.3643 27.3448 38.8227C27.3448 36.4766 27.9314 34.4238 29.1044 32.6643C30.2774 30.9047 31.9197 29.5557 34.0311 28.6173C36.1426 27.6789 38.7805 27.7254 41.5566 27.7254C45.5058 27.7254 50.0972 27.7255 53.4429 27.7255C55.9845 29.6805 54.8061 34.8539 55.0798 38.2948L50.8092 33.2978C48.3204 33.2978 48.2854 33.2978 45.7966 33.2978C44.044 33.2978 42.7553 33.2978 40.6439 33.2978C38.7279 33.2978 37.1788 33.3876 35.9666 34.3652C34.7545 35.3427 34.1484 36.7503 34.1484 38.5881C34.1484 39.8393 34.5199 40.8755 35.2628 41.6966C36.0448 42.4786 37.0224 43.1043 38.1954 43.5735C39.3684 44.0427 40.9716 44.551 43.0048 45.0984C45.7028 45.8413 47.8924 46.5843 49.5738 47.3272C51.2942 48.0701 52.741 49.2236 53.914 50.7876C55.1261 52.3126 55.7322 54.3654 55.7322 56.946C55.7322 59.0184 55.1652 60.9734 54.0313 62.8112C52.9365 64.6489 51.3138 66.1348 49.1632 67.2687C47.0518 68.3635 44.5493 68.9109 41.6558 68.9109Z" fill="white"/>
</g>
<g filter="url(#filter1_d)">
<path d="M129.549 49.3214C123.683 49.3214 118.62 47.4118 114.357 43.5925L119.012 38.0171C122.524 40.9156 126.088 42.3649 129.702 42.3649C131.305 42.3649 132.567 42.058 133.487 41.4442C134.408 40.8304 134.868 39.9779 134.868 38.8866C134.868 37.8636 134.391 37.0452 133.436 36.4314C132.481 35.7835 130.555 35.0844 127.656 34.3342C125.61 33.8227 123.956 33.3282 122.695 32.8508C121.433 32.3393 120.222 31.6744 119.063 30.856C117.937 30.0375 117.102 29.0145 116.556 27.7869C116.045 26.5252 115.789 25.0248 115.789 23.2856C115.789 20.0461 116.949 17.4374 119.267 15.4595C121.62 13.4817 124.638 12.4928 128.321 12.4928C133.402 12.4928 137.835 14.0103 141.62 17.0452L137.528 22.9787C134.152 20.6258 131.049 19.4493 128.219 19.4493C126.752 19.4493 125.61 19.7562 124.792 20.37C124.007 20.9497 123.615 21.717 123.615 22.6718C123.615 23.8312 124.11 24.7008 125.099 25.2805C126.088 25.8602 128.168 26.5593 131.339 27.3777C135.226 28.4007 138.091 29.7136 139.932 31.3163C141.774 32.919 142.695 35.2208 142.695 38.2217C142.695 41.6999 141.484 44.428 139.063 46.4058C136.676 48.3495 133.504 49.3214 129.549 49.3214Z" fill="#2A2A2A"/>
<path d="M161.705 49.4237C157.544 49.4237 154.117 48.1108 151.423 45.4851C148.729 42.8253 147.382 39.3811 147.382 35.1526C147.382 31.1629 148.661 27.7869 151.219 25.0248C153.776 22.2626 157.016 20.8815 160.937 20.8815C165.268 20.8815 168.576 22.3138 170.861 25.1782C173.145 28.0427 174.288 31.5721 174.288 35.7664C174.288 36.1756 174.254 36.8577 174.185 37.8125H155.106C155.481 39.5516 156.249 40.8815 157.408 41.8022C158.567 42.723 160.034 43.1833 161.807 43.1833C164.228 43.1833 166.445 42.2455 168.457 40.37L172.907 44.3086C170.145 47.7187 166.411 49.4237 161.705 49.4237ZM155.004 32.9531H166.717C166.479 31.1799 165.848 29.7647 164.825 28.7076C163.836 27.6505 162.54 27.1219 160.937 27.1219C159.369 27.1219 158.056 27.6505 156.999 28.7076C155.976 29.7306 155.311 31.1458 155.004 32.9531Z" fill="#2A2A2A"/>
<path d="M193.023 49.4237C188.931 49.4237 185.521 48.0426 182.793 45.2805C180.099 42.5183 178.752 39.1424 178.752 35.1526C178.752 31.197 180.116 27.8381 182.844 25.0759C185.572 22.2797 188.999 20.8815 193.126 20.8815C197.525 20.8815 201.156 22.4843 204.021 25.6897L199.468 30.2933C197.559 28.486 195.427 27.5823 193.075 27.5823C191.165 27.5823 189.579 28.3155 188.317 29.7818C187.056 31.2481 186.425 33.0384 186.425 35.1526C186.425 37.301 187.056 39.1083 188.317 40.5746C189.613 42.0068 191.301 42.723 193.381 42.723C195.53 42.723 197.627 41.7511 199.673 39.8074L204.225 44.4109C202.725 46.0478 201.122 47.2924 199.417 48.1449C197.712 48.9975 195.581 49.4237 193.023 49.4237Z" fill="#2A2A2A"/>
<path d="M218.409 49.3214C215.476 49.3214 213.192 48.4177 211.555 46.6104C209.918 44.8031 209.099 42.3137 209.099 39.1424V21.393H216.874V36.6872C216.874 38.4945 217.284 39.8756 218.102 40.8304C218.92 41.7852 220.08 42.2626 221.58 42.2626C223.081 42.2626 224.257 41.7852 225.11 40.8304C225.996 39.8756 226.44 38.4945 226.44 36.6872V21.393H234.215V48.8099H226.44V44.9224C224.155 47.8551 221.478 49.3214 218.409 49.3214Z" fill="#2A2A2A"/>
<path d="M241.173 48.8099V21.393H248.948V26.9173C250.722 22.723 253.637 20.711 257.695 20.8815V29.0145H257.286C254.626 29.0145 252.563 29.8329 251.097 31.4698C249.665 33.0725 248.948 35.4766 248.948 38.682V48.8099H241.173Z" fill="#2A2A2A"/>
<path d="M274.796 49.4237C270.636 49.4237 267.209 48.1108 264.515 45.4851C261.821 42.8253 260.474 39.3811 260.474 35.1526C260.474 31.1629 261.753 27.7869 264.31 25.0248C266.868 22.2626 270.107 20.8815 274.029 20.8815C278.359 20.8815 281.667 22.3138 283.952 25.1782C286.237 28.0427 287.379 31.5721 287.379 35.7664C287.379 36.1756 287.345 36.8577 287.277 37.8125H268.198C268.573 39.5516 269.34 40.8815 270.499 41.8022C271.659 42.723 273.125 43.1833 274.898 43.1833C277.319 43.1833 279.536 42.2455 281.548 40.37L285.998 44.3086C283.236 47.7187 279.502 49.4237 274.796 49.4237ZM268.095 32.9531H279.809C279.57 31.1799 278.939 29.7647 277.916 28.7076C276.927 27.6505 275.631 27.1219 274.029 27.1219C272.46 27.1219 271.147 27.6505 270.09 28.7076C269.067 29.7306 268.402 31.1458 268.095 32.9531Z" fill="#2A2A2A"/>
<path d="M116.712 93.9147V61.7364H139.834V65.0922H120.343V76.5844H137.765V79.8942H120.343V93.9147H116.712Z" fill="#5B5B5B"/>
<path d="M146.373 64.9542V61.0469H150.418V64.9542H146.373ZM146.603 93.9147V70.1487H150.143V93.9147H146.603Z" fill="#5B5B5B"/>
<path d="M158.357 93.9147V70.1487H161.897V74.286C163.766 71.1907 166.478 69.6431 170.033 69.6431C172.853 69.6431 175.074 70.5165 176.699 72.2633C178.323 73.9795 179.135 76.2779 179.135 79.1587V93.9147H175.595V80.0321C175.595 77.7949 175.013 76.0481 173.849 74.7916C172.715 73.5045 171.106 72.8609 169.022 72.8609C166.969 72.8609 165.268 73.5505 163.919 74.9295C162.571 76.3086 161.897 78.1014 161.897 80.3079V93.9147H158.357Z" fill="#5B5B5B"/>
<path d="M193.763 94.4204C191.342 94.4204 189.258 93.7615 187.511 92.4437C185.764 91.1259 184.891 89.2872 184.891 86.9274C184.891 84.4451 185.81 82.5297 187.649 81.1813C189.488 79.8329 191.955 79.1587 195.05 79.1587C197.502 79.1587 199.923 79.4958 202.313 80.17V79.4345C202.313 77.3506 201.7 75.757 200.474 74.6537C199.248 73.5505 197.517 72.9988 195.28 72.9988C192.951 72.9988 190.545 73.5658 188.063 74.6997L187.005 71.8036C189.947 70.4552 192.828 69.781 195.648 69.781C199.019 69.781 201.578 70.6544 203.324 72.4012C204.979 74.0561 205.807 76.3852 205.807 79.3885V93.9147H202.313V90.3751C200.198 93.072 197.348 94.4204 193.763 94.4204ZM194.452 91.5703C196.659 91.5703 198.528 90.9727 200.061 89.7775C201.593 88.5823 202.359 87.05 202.359 85.1806V82.9741C200.03 82.2999 197.716 81.9628 195.418 81.9628C193.242 81.9628 191.541 82.4072 190.315 83.2959C189.089 84.154 188.476 85.3338 188.476 86.8355C188.476 88.2759 189.043 89.4251 190.177 90.2832C191.342 91.1413 192.767 91.5703 194.452 91.5703Z" fill="#5B5B5B"/>
<path d="M213.304 93.9147V70.1487H216.844V74.286C218.713 71.1907 221.426 69.6431 224.98 69.6431C227.8 69.6431 230.022 70.5165 231.646 72.2633C233.27 73.9795 234.082 76.2779 234.082 79.1587V93.9147H230.543V80.0321C230.543 77.7949 229.96 76.0481 228.796 74.7916C227.662 73.5045 226.053 72.8609 223.969 72.8609C221.916 72.8609 220.215 73.5505 218.867 74.9295C217.518 76.3086 216.844 78.1014 216.844 80.3079V93.9147H213.304Z" fill="#5B5B5B"/>
<path d="M252.342 94.4664C248.909 94.4664 246.013 93.2558 243.654 90.8348C241.325 88.3831 240.16 85.4564 240.16 82.0547C240.16 78.653 241.325 75.7416 243.654 73.3206C246.013 70.8689 248.909 69.6431 252.342 69.6431C256.019 69.6431 259.191 71.0528 261.857 73.8722L259.605 76.2626C257.398 73.9335 254.962 72.769 252.296 72.769C249.905 72.769 247.883 73.673 246.228 75.4812C244.604 77.2586 243.792 79.4498 243.792 82.0547C243.792 84.629 244.619 86.8202 246.274 88.6283C247.959 90.4058 250.043 91.2945 252.526 91.2945C255.069 91.2945 257.46 90.0993 259.697 87.7089L262.041 89.8695C259.283 92.9341 256.05 94.4664 252.342 94.4664Z" fill="#5B5B5B"/>
<path d="M269.334 83.4798C269.579 85.9008 270.483 87.8315 272.046 89.2719C273.64 90.6816 275.524 91.3864 277.7 91.3864C280.55 91.3864 283.048 90.2679 285.193 88.0307L287.4 90.0074C284.733 92.98 281.47 94.4664 277.608 94.4664C274.268 94.4664 271.448 93.3171 269.15 91.0187C266.882 88.6896 265.748 85.7016 265.748 82.0547C265.748 78.5917 266.836 75.665 269.012 73.2746C271.188 70.8536 273.9 69.6431 277.148 69.6431C280.55 69.6431 283.247 70.8383 285.239 73.2287C287.231 75.6191 288.227 78.6224 288.227 82.2386C288.227 82.6983 288.212 83.112 288.181 83.4798H269.334ZM269.334 80.6297H284.641C284.427 78.3312 283.661 76.4312 282.343 74.9295C281.056 73.3972 279.294 72.6311 277.057 72.6311C275.034 72.6311 273.302 73.3819 271.862 74.8836C270.422 76.3852 269.579 78.3006 269.334 80.6297Z" fill="#5B5B5B"/>
</g>
<defs>
<filter id="filter0_d" x="0.627441" y="0.371094" width="98.4592" height="107.473" filterUnits="userSpaceOnUse" color-interpolation-filters="sRGB">
<feFlood flood-opacity="0" result="BackgroundImageFix"/>
<feColorMatrix in="SourceAlpha" type="matrix" values="0 0 0 0 0 0 0 0 0 0 0 0 0 0 0 0 0 0 127 0"/>
<feOffset dy="2"/>
<feGaussianBlur stdDeviation="2"/>
<feColorMatrix type="matrix" values="0 0 0 0 0 0 0 0 0 0 0 0 0 0 0 0 0 0 0.2 0"/>
<feBlend mode="normal" in2="BackgroundImageFix" result="effect1_dropShadow"/>
<feBlend mode="normal" in="SourceGraphic" in2="effect1_dropShadow" result="shape"/>
</filter>
<filter id="filter1_d" x="110.357" y="10.4928" width="181.87" height="89.9736" filterUnits="userSpaceOnUse" color-interpolation-filters="sRGB">
<feFlood flood-opacity="0" result="BackgroundImageFix"/>
<feColorMatrix in="SourceAlpha" type="matrix" values="0 0 0 0 0 0 0 0 0 0 0 0 0 0 0 0 0 0 127 0"/>
<feOffset dy="2"/>
<feGaussianBlur stdDeviation="2"/>
<feColorMatrix type="matrix" values="0 0 0 0 0 0 0 0 0 0 0 0 0 0 0 0 0 0 0.2 0"/>
<feBlend mode="normal" in2="BackgroundImageFix" result="effect1_dropShadow"/>
<feBlend mode="normal" in="SourceGraphic" in2="effect1_dropShadow" result="shape"/>
</filter>
<linearGradient id="paint0_linear" x1="49.8628" y1="4.97522" x2="49.8628" y2="98.5716" gradientUnits="userSpaceOnUse">
<stop stop-color="#2A2A2A"/>
<stop offset="1" stop-color="#1D1D1D"/>
</linearGradient>
<linearGradient id="paint1_linear" x1="48.1986" y1="22.2772" x2="49.8628" y2="98.5716" gradientUnits="userSpaceOnUse">
<stop stop-color="#2A2A2A"/>
<stop offset="1" stop-color="#151414"/>
</linearGradient>
</defs>
</svg>
